<svg width="512" height="512" viewBox="0 0 512 512" fill="none" xmlns="http://www.w3.org/2000/svg">
  <defs>
    <filter id="glow" x="-20%" y="-20%" width="140%" height="140%">
      <feGaussianBlur stdDeviation="5" result="blur"/>
      <feComposite in="SourceGraphic" in2="blur" operator="over"/>
    </filter>
  </defs>
  
  <rect width="512" height="512" rx="64" fill="#0f172a"/>
  
  <!-- Chess Knight Head -->
  <path d="M160 380 L352 380 L352 420 L160 420 Z" fill="#6366f1"/>
  <path d="M256 92 C 320 92, 360 140, 360 200 L 360 360 L 280 360 L 280 260 C 280 240, 260 220, 240 220 L 200 220 L 200 360 L 160 360 L 160 200 C 160 140, 200 92, 256 92 Z" fill="#e2e8f0"/>
  
  <!-- Eye -->
  <path d="M280 140 L 320 160 L 320 180 L 280 160 Z" fill="#0f172a"/>
  
  <!-- Cross on Neck -->
  <rect x="230" y="280" width="12" height="40" fill="#6366f1"/>
  <rect x="216" y="294" width="40" height="12" fill="#6366f1"/>
</svg>
